<?xml version="1.0" encoding="UTF-8" standalone="no"?>
<svg width="113px" height="65px" viewBox="0 0 113 65" version="1.1" xmlns="http://www.w3.org/2000/svg" xmlns:xlink="http://www.w3.org/1999/xlink" xmlns:sketch="http://www.bohemiancoding.com/sketch/ns">
    <!-- Generator: Sketch 3.0.4 (8053) - http://www.bohemiancoding.com/sketch -->
    <title>Securitas EPS-CMYK1_Securitas_186_CMYK</title>
    <desc>Created with Sketch.</desc>
    <defs></defs>
    <g id="Page-1" stroke="none" stroke-width="1" fill="none" fill-rule="evenodd" sketch:type="MSPage">
        <g id="Securitas-EPS-CMYK1_Securitas_186_CMYK" sketch:type="MSLayerGroup" transform="translate(0.000000, 1.000000)">
            <path d="M0,-0.0296936937 L112.957589,-0.0296936937 L112.957589,63.6944144 L0,63.6944144 L0,-0.0296936937 Z" id="Fill-1" fill="#1A1918" sketch:type="MSShapeGroup"></path>
            <path d="M37.1152343,21.2321441 C37.1152343,30.2512432 29.8949043,37.5607928 20.9744509,37.5607928 C12.0676599,37.5607928 4.84106801,30.2512432 4.84106801,21.2321441 C4.84106801,12.1971892 12.0676599,4.87409009 20.9744509,4.87409009 C29.8949043,4.87409009 37.1152343,12.1971892 37.1152343,21.2321441" id="Fill-3" fill="#D02138" sketch:type="MSShapeGroup"></path>
            <path d="M108.116521,21.2321441 C108.116521,30.2512432 100.896191,37.5607928 91.9768766,37.5607928 C83.0686625,37.5607928 75.8415013,30.2512432 75.8415013,21.2321441 C75.8415013,12.1971892 83.0686625,4.87409009 91.9768766,4.87409009 C100.896191,4.87409009 108.116521,12.1971892 108.116521,21.2321441" id="Fill-4" fill="#D02138" sketch:type="MSShapeGroup"></path>
            <path d="M72.6148816,21.2321441 C72.6148816,30.2512432 65.3945516,37.5607928 56.4749521,37.5607928 C47.566738,37.5607928 40.3418539,30.2512432 40.3418539,21.2321441 C40.3418539,12.1971892 47.566738,4.87409009 56.4749521,4.87409009 C65.3945516,4.87409009 72.6148816,12.1971892 72.6148816,21.2321441" id="Fill-5" fill="#D02138" sketch:type="MSShapeGroup"></path>
            <path d="M26.1579345,43.7094054 L26.1579345,47.3277117 L25.6194055,47.3277117 L24.2722292,45.1790991 L21.1218917,45.1790991 L21.1218917,49.580973 L22.5533199,49.580973 L23.5469798,47.8895856 L24.069,47.8895856 L24.069,52.6982342 L23.5469798,52.6982342 L22.5533199,51.0495135 L21.1218917,51.0495135 L21.1218917,55.8492252 L24.2039169,55.8492252 L25.6695013,53.2194595 L26.1915214,53.2194595 L26.1915214,57.2015856 L16.1851864,57.2015856 L16.1851864,56.6982342 L17.5844509,55.7465946 L17.5844509,45.1632432 L16.1851864,44.2061261 L16.1851864,43.7094054 L26.1579345,43.7094054" id="Fill-6" fill="#FFFFFF" sketch:type="MSShapeGroup"></path>
            <path d="M33.6239043,43.4346667 C35.5602746,43.4346667 36.6655113,43.7442883 37.5578413,44.2061261 L37.5578413,47.9132252 L37.0030882,47.9132252 L35.755534,45.4584505 C35.3692846,45.267027 34.7621587,45.1790991 34.1538942,45.1790991 C32.2027229,45.1790991 31.179461,46.8255135 31.179461,50.4539099 C31.179461,54.0823063 32.2027229,55.7307387 34.1538942,55.7307387 C35.1330378,55.7307387 35.3692846,55.6206126 35.755534,55.4323604 L37.0030882,52.9977658 L37.5578413,52.9977658 L37.5578413,56.6982342 C36.6823048,57.0810811 35.5602746,57.4717117 33.6239043,57.4717117 C30.1536373,57.4717117 27.3736096,54.9898378 27.3736096,50.4539099 C27.3736096,45.9188468 30.1536373,43.4346667 33.6239043,43.4346667" id="Fill-7" fill="#FFFFFF" sketch:type="MSShapeGroup"></path>
            <path d="M40.0133854,45.1632432 L38.6141209,44.2061261 L38.6141209,43.7094054 L44.7793098,43.7094054 L44.7793098,44.2061261 L43.5502569,45.1632432 L43.5502569,53.1661261 C43.5502569,54.3630991 44.0227506,55.1948108 45.1681209,55.1948108 C46.145272,55.1948108 46.8184332,54.7352793 47.2243224,54.1846486 L47.2243224,45.1632432 L45.9947003,44.2061261 L45.9947003,43.7094054 L52.1604584,43.7094054 L52.1604584,44.2061261 L50.7606247,45.1632432 L50.7606247,55.7465946 L52.1604584,56.6982342 L52.1604584,57.2015856 L47.576131,57.2015856 L47.576131,55.8180901 L47.2949118,55.8180901 C46.6038186,56.6538378 45.6596851,57.4717117 43.9587078,57.4717117 C41.0949975,57.4717117 40.0133854,55.7353514 40.0133854,53.339964 L40.0133854,45.1632432" id="Fill-8" fill="#FFFFFF" sketch:type="MSShapeGroup"></path>
            <path d="M66.8954307,44.2061261 L66.8954307,43.7094054 L73.2442091,43.7094054 L73.2442091,44.2061261 L71.8378287,45.1632432 L71.8378287,55.7465946 L73.2442091,56.6982342 L73.2442091,57.2015856 L66.8954307,57.2015856 L66.8954307,56.6982342 L68.2998186,55.7465946 L68.2998186,45.1632432 L66.8954307,44.2061261" id="Fill-9" fill="#FFFFFF" sketch:type="MSShapeGroup"></path>
            <path d="M78.0457128,55.7465946 L78.0457128,45.1790991 L76.3936927,45.1790991 L74.8768741,48.0247928 L74.3300907,48.0247928 L74.3300907,43.7094054 L85.2896675,43.7094054 L85.2896675,48.0247928 L84.7502846,48.0247928 L83.2337506,45.1790991 L81.5825844,45.1790991 L81.5825844,55.7465946 L82.9889647,56.6982342 L82.9889647,57.2015856 L76.640471,57.2015856 L76.640471,56.6982342 L78.0457128,55.7465946" id="Fill-10" fill="#FFFFFF" sketch:type="MSShapeGroup"></path>
            <path d="M88.0304156,52.48 L89.3593753,47.4908829 L89.5463804,47.4908829 L90.943937,52.48 L88.0304156,52.48 L88.0304156,52.48 Z M95.594869,55.7465946 L91.449733,43.5381622 L88.9893501,43.9988468 L85.4157607,55.5865946 L84.0347128,56.6982342 L84.0347128,57.2015856 L88.3631537,57.2015856 L88.3631537,56.6982342 L87.2012746,55.5865946 L87.6159874,54.0315676 L91.3762972,54.0315676 L91.8556222,55.7465946 L90.6425088,56.6982342 L90.6425088,57.2015856 L96.8922343,57.2015856 L96.8922343,56.6982342 L95.594869,55.7465946 L95.594869,55.7465946 Z" id="Fill-11" fill="#FFFFFF" sketch:type="MSShapeGroup"></path>
            <path d="M10.4779748,57.4717117 C8.5413199,57.4717117 7.23086146,56.9966126 6.50589673,56.5653333 L6.50589673,53.3128649 L7.02848615,53.3128649 L8.25924685,55.5191351 C8.74625693,55.7287207 9.56970529,55.8492252 10.3937229,55.8492252 C11.8877708,55.8492252 12.299068,55.1264865 12.299068,54.3852973 C12.299068,53.2739459 11.6264761,52.9121441 10.0088967,52.0720721 C9.75044836,51.938018 9.05138539,51.5626667 8.8214005,51.4147748 C7.40078841,50.5009009 6.53919899,49.2967207 6.53919899,47.5416216 C6.53919899,45.026018 8.31048111,43.4346667 11.2057859,43.4346667 C12.8401587,43.4346667 14.0196851,43.7264144 14.5078338,43.946955 L14.5078338,47.1844324 L13.9698741,47.1844324 L12.8401587,45.2984505 C12.5364534,45.1790991 11.9973552,45.0597477 11.1889924,45.0597477 C10.0948564,45.0597477 9.42112594,45.4921802 9.42112594,46.3783784 C9.42112594,47.4583063 10.1688615,47.822991 11.2015164,48.4632793 C11.484728,48.6391351 12.5242141,49.1289369 12.8780151,49.3437117 C14.1822116,50.1353514 15.3136348,50.7701622 15.3136348,52.9796036 C15.3136348,55.6823063 13.729073,57.4717117 10.4779748,57.4717117" id="Fill-12" fill="#FFFFFF" sketch:type="MSShapeGroup"></path>
            <path d="M101.293542,57.4717117 C99.356602,57.4717117 98.0464282,56.9966126 97.3214635,56.5653333 L97.3214635,53.3128649 L97.8440529,53.3128649 L99.0748136,55.5191351 C99.5618237,55.7287207 100.385272,55.8492252 101.209005,55.8492252 C102.703053,55.8492252 103.114919,55.1264865 103.114919,54.3852973 C103.114919,53.2739459 102.442043,52.9121441 100.824463,52.0720721 C100.56573,51.938018 99.8669521,51.5626667 99.6369673,51.4147748 C98.2160705,50.5009009 97.3547657,49.2967207 97.3547657,47.5416216 C97.3547657,45.026018 99.1260479,43.4346667 102.021353,43.4346667 C103.655725,43.4346667 104.835252,43.7264144 105.323401,43.946955 L105.323401,47.1844324 L104.785441,47.1844324 L103.655725,45.2984505 C103.35202,45.1790991 102.812922,45.0597477 102.004559,45.0597477 C100.910423,45.0597477 100.236693,45.4921802 100.236693,46.3783784 C100.236693,47.4583063 100.984428,47.822991 102.016798,48.4632793 C102.300295,48.6391351 103.339781,49.1289369 103.693582,49.3437117 C104.997778,50.1353514 106.128917,50.7701622 106.128917,52.9796036 C106.128917,55.6823063 104.54464,57.4717117 101.293542,57.4717117" id="Fill-13" fill="#FFFFFF" sketch:type="MSShapeGroup"></path>
            <path d="M58.3956675,49.8525405 L59.6036574,49.8525405 C60.9001688,49.8525405 61.2764559,49.1372973 61.2764559,47.5416216 C61.2764559,45.9517117 60.9001688,45.230991 59.6036574,45.230991 L58.3956675,45.230991 L58.3956675,49.8525405 L58.3956675,49.8525405 Z M60.3146751,43.7094054 C63.2279118,43.7094054 64.7287909,44.9233874 64.7287909,47.3029189 C64.7287909,49.0190991 63.6067607,50.1405405 61.496194,50.4887928 L61.496194,50.7416216 C62.4411814,50.9465946 63.5965139,51.4312072 64.0522141,52.8345946 L64.909534,55.7465946 L66.3927657,56.6982342 L66.3927657,57.2015856 L61.5061562,57.2015856 L60.2597406,52.3569009 C60.0607809,51.6024505 59.7715919,51.3816216 59.0822065,51.3816216 L58.3956675,51.3816216 L58.3956675,55.7465946 L59.8672292,56.6982342 L59.8672292,57.2015856 L53.4524156,57.2015856 L53.4524156,56.6982342 L54.8559496,55.7465946 L54.8559496,45.1632432 L53.4524156,44.2061261 L53.4524156,43.7094054 L60.3146751,43.7094054 L60.3146751,43.7094054 Z" id="Fill-14" fill="#FFFFFF" sketch:type="MSShapeGroup"></path>
        </g>
    </g>
</svg>